G75*
%MOIN*%
%OFA0B0*%
%FSLAX24Y24*%
%IPPOS*%
%LPD*%
%AMOC8*
5,1,8,0,0,1.08239X$1,22.5*
%
%ADD10C,0.0396*%
%ADD11C,0.0354*%
D10*
X004461Y001180D03*
X004961Y001180D03*
X042207Y039488D03*
X042770Y039488D03*
D11*
X042207Y039488D01*
X004524Y039488D01*
X004524Y038926D01*
X042770Y038926D01*
X042770Y038364D01*
X004524Y038364D01*
X004524Y037801D01*
X042770Y037801D01*
X042770Y037239D01*
X004524Y037239D01*
X004524Y036676D01*
X042770Y036676D01*
X042770Y036114D01*
X004524Y036114D01*
X004524Y035551D01*
X042770Y035551D01*
X042770Y034989D01*
X004524Y034989D01*
X004524Y034426D01*
X042770Y034426D01*
X042770Y033864D01*
X004524Y033864D01*
X004524Y033302D01*
X042770Y033302D01*
X042770Y032739D01*
X004524Y032739D01*
X004524Y032177D01*
X042770Y032177D01*
X042770Y031614D01*
X004524Y031614D01*
X004524Y031052D01*
X042770Y031052D01*
X042770Y030489D01*
X004524Y030489D01*
X004524Y029927D01*
X042770Y029927D01*
X042770Y029364D01*
X004524Y029364D01*
X004524Y028802D01*
X042770Y028802D01*
X042770Y028240D01*
X004524Y028240D01*
X004524Y027677D01*
X042770Y027677D01*
X042770Y027115D01*
X004524Y027115D01*
X004524Y026552D01*
X042770Y026552D01*
X042770Y025990D01*
X004524Y025990D01*
X004524Y025427D01*
X042770Y025427D01*
X042770Y024865D01*
X004524Y024865D01*
X004524Y024303D01*
X042770Y024303D01*
X042770Y023740D01*
X004524Y023740D01*
X004524Y023178D01*
X042770Y023178D01*
X042770Y022615D01*
X004524Y022615D01*
X004524Y022053D01*
X042770Y022053D01*
X042770Y021490D01*
X004524Y021490D01*
X004524Y020928D01*
X042770Y020928D01*
X042770Y020365D01*
X004524Y020365D01*
X004524Y019803D01*
X042770Y019803D01*
X042770Y019241D01*
X004524Y019241D01*
X004524Y018678D01*
X042770Y018678D01*
X042770Y018116D01*
X004524Y018116D01*
X004524Y017553D01*
X042770Y017553D01*
X042770Y016991D01*
X004524Y016991D01*
X004524Y016428D01*
X042770Y016428D01*
X042770Y015866D01*
X004524Y015866D01*
X004524Y015303D01*
X042770Y015303D01*
X042770Y014741D01*
X004524Y014741D01*
X004524Y014179D01*
X042770Y014179D01*
X042770Y013616D01*
X004524Y013616D01*
X004524Y013054D01*
X042770Y013054D01*
X042770Y012491D01*
X004524Y012491D01*
X004524Y011929D01*
X042770Y011929D01*
X042770Y011366D01*
X004524Y011366D01*
X004524Y010804D01*
X042770Y010804D01*
X042770Y010241D01*
X004524Y010241D01*
X004524Y009679D01*
X042770Y009679D01*
X042770Y009117D01*
X004524Y009117D01*
X004524Y008554D01*
X042770Y008554D01*
X042770Y007992D01*
X004524Y007992D01*
X004524Y007429D01*
X042770Y007429D01*
X042770Y006867D01*
X004524Y006867D01*
X004524Y006304D01*
X042770Y006304D01*
X042770Y005742D01*
X004524Y005742D01*
X004524Y005180D01*
X042770Y005180D01*
X042770Y004617D01*
X004524Y004617D01*
X004524Y004055D01*
X042770Y004055D01*
X042770Y003492D01*
X004524Y003492D01*
X004524Y002930D01*
X042770Y002930D01*
X042770Y002367D01*
X004524Y002367D01*
X004524Y001805D01*
X042770Y001805D01*
X042770Y001180D01*
X004461Y001180D01*
M02*
